<?xml version="1.0" encoding="UTF-8" ?>
<!DOCTYPE svg PUBLIC "-//W3C//DTD SVG 1.1//EN" "http://www.w3.org/Graphics/SVG/1.1/DTD/svg11.dtd">
<svg width="306pt" height="308pt" viewBox="0 0 306 308" version="1.1" xmlns="http://www.w3.org/2000/svg">
<g id="#fefefeff">
<path fill="#fefefe" opacity="1.00" d=" M 0.00 0.00 L 306.00 0.00 L 306.00 308.00 L 0.00 308.00 L 0.00 0.00 M 148.95 24.01 C 155.36 20.19 162.40 16.84 170.01 16.69 C 176.12 16.88 182.13 19.27 186.68 23.36 C 191.93 28.17 197.14 33.53 199.40 40.46 C 192.94 38.28 186.37 36.36 179.64 35.24 C 166.29 32.24 152.41 32.87 138.94 34.65 C 101.48 39.37 67.22 63.36 49.55 96.66 C 47.14 100.43 45.95 105.48 41.67 107.65 C 35.31 111.28 28.43 114.13 22.77 118.87 C 15.35 124.56 9.43 132.66 7.73 141.98 C 6.39 150.60 9.55 159.36 14.77 166.17 C 16.96 168.95 19.11 172.06 22.32 173.73 C 23.29 175.07 24.31 176.40 25.55 177.51 C 38.21 188.28 53.63 195.00 69.00 200.93 C 73.71 202.56 78.39 204.30 83.21 205.58 C 85.02 202.01 85.57 197.96 86.86 194.19 C 75.48 190.32 64.00 186.44 53.59 180.31 C 49.09 177.56 43.70 175.46 40.78 170.83 C 40.17 165.53 40.70 160.17 40.81 154.85 C 42.29 149.10 42.69 143.15 44.06 137.38 C 49.50 114.42 61.29 92.76 78.45 76.45 C 93.94 60.35 114.26 49.61 135.43 43.01 C 141.68 41.03 148.20 40.17 154.59 38.74 C 169.72 37.93 184.94 39.51 199.55 43.52 C 201.06 43.82 202.03 45.01 202.49 46.42 C 208.24 60.86 210.88 76.33 212.39 91.74 C 215.80 92.01 219.22 92.34 222.63 92.72 C 221.06 70.91 216.91 48.56 205.40 29.63 C 199.42 19.77 189.10 10.90 176.99 11.23 C 166.26 10.73 156.50 16.94 148.95 24.01 M 210.61 95.85 C 200.29 98.76 194.66 111.59 199.45 121.19 C 200.73 123.29 202.09 125.39 203.95 127.04 C 210.97 133.60 223.35 132.95 229.59 125.61 C 237.59 117.27 234.81 101.49 224.04 96.85 C 219.96 94.69 215.00 94.91 210.61 95.85 M 264.81 97.79 C 265.99 104.33 268.84 110.43 270.11 116.95 C 273.16 129.73 273.19 142.93 272.66 155.98 C 271.92 165.81 269.70 175.47 266.91 184.91 C 265.93 187.64 264.80 190.85 261.86 192.01 C 250.90 196.93 239.24 200.05 227.59 202.88 C 221.72 204.07 215.82 205.47 209.79 205.36 C 213.81 190.91 217.48 176.32 219.28 161.40 C 221.16 152.41 221.73 143.26 222.45 134.13 C 218.95 134.61 215.42 134.80 211.89 134.66 C 210.74 149.33 208.63 163.95 205.15 178.26 C 202.75 187.86 200.98 197.75 196.96 206.84 C 187.85 206.89 178.72 206.47 169.63 207.10 C 155.66 206.34 141.69 205.43 127.77 204.03 C 127.65 207.64 127.02 211.20 126.15 214.70 C 135.73 215.31 145.20 217.46 154.81 217.39 C 167.58 217.83 180.37 217.39 193.15 217.69 C 187.65 234.73 178.38 250.37 167.62 264.60 C 165.15 267.69 162.38 271.69 157.93 271.54 C 149.64 271.76 141.33 271.67 133.04 271.27 C 121.43 270.21 110.12 267.05 99.25 262.94 C 103.66 272.39 107.35 282.57 114.95 290.05 C 121.19 296.93 130.57 301.30 139.94 300.21 C 150.57 298.88 159.80 292.62 167.39 285.40 C 169.99 282.96 171.93 279.87 174.68 277.59 C 177.08 276.32 179.85 276.12 182.45 275.50 C 221.26 267.94 255.03 239.58 269.99 203.09 C 271.16 200.15 272.89 197.23 275.87 195.83 C 286.57 190.32 296.21 180.94 299.02 168.90 C 300.97 156.53 295.16 143.64 285.63 135.80 C 285.26 135.38 284.52 134.54 284.15 134.13 C 283.51 134.91 282.90 135.72 282.32 136.54 C 281.74 136.25 281.17 135.93 280.61 135.61 C 280.18 131.44 279.67 127.15 277.72 123.37 C 277.09 122.01 275.49 121.70 274.29 121.08 C 271.89 113.06 269.48 104.84 264.81 97.79 M 99.54 188.44 C 93.66 190.38 88.83 195.64 88.39 201.96 C 88.24 205.57 87.99 209.30 88.86 212.83 C 91.42 217.57 95.72 221.81 101.02 223.24 C 106.71 224.17 113.32 223.92 117.79 219.82 C 120.77 217.00 123.79 213.38 123.68 209.03 C 123.86 204.00 123.86 198.49 120.60 194.31 C 115.93 187.89 106.83 185.82 99.54 188.44 Z" />
</g>
<g id="#0785bdff">
<path fill="#0785bd" opacity="1.00" d=" M 148.95 24.01 C 156.50 16.94 166.26 10.73 176.99 11.23 C 189.10 10.90 199.42 19.77 205.40 29.63 C 216.91 48.56 221.06 70.91 222.63 92.72 C 219.22 92.34 215.80 92.01 212.39 91.74 C 210.88 76.33 208.24 60.86 202.49 46.42 C 202.03 45.01 201.06 43.82 199.55 43.52 C 184.94 39.51 169.72 37.93 154.59 38.74 C 162.81 36.43 171.88 39.50 179.64 35.24 C 186.37 36.36 192.94 38.28 199.40 40.46 C 197.14 33.53 191.93 28.17 186.68 23.36 C 182.13 19.27 176.12 16.88 170.01 16.69 C 162.40 16.84 155.36 20.19 148.95 24.01 Z" />
</g>
<g id="#0694d0ff">
<path fill="#0694d0" opacity="1.00" d=" M 138.94 34.65 C 152.41 32.87 166.29 32.24 179.64 35.24 C 171.88 39.50 162.81 36.43 154.59 38.74 C 148.20 40.17 141.68 41.03 135.43 43.01 C 114.26 49.61 93.94 60.35 78.45 76.45 C 61.29 92.76 49.50 114.42 44.06 137.38 C 42.69 143.15 42.29 149.10 40.81 154.85 C 39.95 158.58 39.60 162.41 39.42 166.24 C 38.08 166.42 36.73 166.60 35.39 166.79 C 36.79 169.85 38.33 172.85 39.98 175.78 C 37.53 176.61 35.11 177.83 32.49 177.93 C 28.93 177.03 25.76 175.00 22.32 173.73 C 19.11 172.06 16.96 168.95 14.77 166.17 C 9.55 159.36 6.39 150.60 7.73 141.98 C 9.43 132.66 15.35 124.56 22.77 118.87 C 28.43 114.13 35.31 111.28 41.67 107.65 C 45.95 105.48 47.14 100.43 49.55 96.66 C 67.22 63.36 101.48 39.37 138.94 34.65 M 21.67 135.40 C 19.37 147.19 25.68 158.90 34.52 166.35 C 34.97 158.26 34.13 150.15 34.89 142.08 C 36.49 131.25 39.01 120.52 42.91 110.28 C 33.17 115.60 23.97 124.13 21.67 135.40 Z" />
</g>
<g id="#cf1b1fff">
<path fill="#cf1b1f" opacity="1.00" d=" M 210.61 95.85 C 215.00 94.91 219.96 94.69 224.04 96.85 C 228.04 101.29 230.26 106.92 231.83 112.61 C 226.73 115.43 221.56 118.31 217.50 122.57 C 215.50 124.26 213.56 127.07 210.57 126.53 C 206.40 125.98 202.81 123.55 199.45 121.19 C 194.66 111.59 200.29 98.76 210.61 95.85 Z" />
</g>
<g id="#ac1c20ff">
<path fill="#ac1c20" opacity="1.00" d=" M 224.04 96.85 C 234.81 101.49 237.59 117.27 229.59 125.61 C 223.35 132.95 210.97 133.60 203.95 127.04 C 202.09 125.39 200.73 123.29 199.45 121.19 C 202.81 123.55 206.40 125.98 210.57 126.53 C 213.56 127.07 215.50 124.26 217.50 122.57 C 221.56 118.31 226.73 115.43 231.83 112.61 C 230.26 106.92 228.04 101.29 224.04 96.85 Z" />
</g>
<g id="#075c8dff">
<path fill="#075c8d" opacity="1.00" d=" M 264.81 97.79 C 269.48 104.84 271.89 113.06 274.29 121.08 C 275.84 127.23 277.61 133.35 278.52 139.65 C 279.66 147.04 279.45 154.54 279.31 161.99 C 279.20 169.10 277.20 176.01 277.03 183.11 C 285.62 177.08 293.02 167.92 293.26 156.99 C 293.58 148.67 288.78 141.59 284.50 134.89 C 284.78 135.12 285.35 135.57 285.63 135.80 C 295.16 143.64 300.97 156.53 299.02 168.90 C 296.21 180.94 286.57 190.32 275.87 195.83 C 272.89 197.23 271.16 200.15 269.99 203.09 C 255.03 239.58 221.26 267.94 182.45 275.50 C 179.85 276.12 177.08 276.32 174.68 277.59 C 171.93 279.87 169.99 282.96 167.39 285.40 C 159.80 292.62 150.57 298.88 139.94 300.21 C 130.57 301.30 121.19 296.93 114.95 290.05 C 107.35 282.57 103.66 272.39 99.25 262.94 C 110.12 267.05 121.43 270.21 133.04 271.27 C 141.33 271.67 149.64 271.76 157.93 271.54 C 162.38 271.69 165.15 267.69 167.62 264.60 C 178.38 250.37 187.65 234.73 193.15 217.69 C 180.37 217.39 167.58 217.83 154.81 217.39 C 165.35 216.35 175.95 216.35 186.49 215.31 C 190.46 214.74 194.17 216.43 197.47 218.45 C 195.90 220.82 194.33 223.20 192.77 225.57 C 193.89 226.49 195.01 227.42 196.13 228.35 C 195.96 228.82 195.62 229.78 195.44 230.25 C 193.93 230.39 192.42 230.53 190.91 230.66 C 190.63 233.24 190.37 235.83 190.15 238.42 C 192.94 236.55 196.11 234.68 197.31 231.33 C 199.74 225.38 200.65 218.25 205.87 213.91 C 209.74 212.11 214.26 211.83 217.67 209.01 C 214.91 208.29 212.14 207.66 209.36 207.06 C 209.47 206.64 209.68 205.79 209.79 205.36 C 215.82 205.47 221.72 204.07 227.59 202.88 C 239.24 200.05 250.90 196.93 261.86 192.01 C 264.80 190.85 265.93 187.64 266.91 184.91 C 269.70 175.47 271.92 165.81 272.66 155.98 C 273.19 142.93 273.16 129.73 270.11 116.95 C 268.84 110.43 265.99 104.33 264.81 97.79 M 230.86 212.58 C 222.73 214.41 214.44 215.14 206.22 216.36 C 202.54 225.29 199.74 234.60 195.31 243.23 C 191.29 250.88 186.92 258.36 183.21 266.18 C 196.35 262.86 208.39 256.16 219.47 248.51 C 230.13 240.64 240.06 231.61 247.87 220.86 C 251.42 215.83 255.38 210.98 257.56 205.15 C 248.67 207.66 239.93 210.78 230.86 212.58 M 105.73 267.46 C 110.74 278.55 122.50 287.50 135.07 286.28 C 141.45 285.37 147.83 283.00 152.69 278.67 C 149.42 278.18 146.14 277.78 142.84 277.51 C 130.02 276.13 117.71 272.05 105.73 267.46 Z" />
</g>
<g id="#f7fdfaff">
<path fill="#f7fdfa" opacity="1.00" d=" M 21.67 135.40 C 23.97 124.13 33.17 115.60 42.91 110.28 C 39.01 120.52 36.49 131.25 34.89 142.08 C 34.13 150.15 34.97 158.26 34.52 166.35 C 25.68 158.90 19.37 147.19 21.67 135.40 Z" />
</g>
<g id="#f6fdfaff">
<path fill="#f6fdfa" opacity="1.00" d=" M 274.29 121.08 C 275.49 121.70 277.09 122.01 277.72 123.37 C 279.67 127.15 280.18 131.44 280.61 135.61 C 281.17 135.93 281.74 136.25 282.32 136.54 C 282.90 135.72 283.51 134.91 284.15 134.13 C 284.52 134.54 285.26 135.38 285.63 135.80 C 285.35 135.57 284.78 135.12 284.50 134.89 C 288.78 141.59 293.58 148.67 293.26 156.99 C 293.02 167.92 285.62 177.08 277.03 183.11 C 277.20 176.01 279.20 169.10 279.31 161.99 C 279.45 154.54 279.66 147.04 278.52 139.65 C 277.61 133.35 275.84 127.23 274.29 121.08 Z" />
</g>
<g id="#056a9eff">
<path fill="#056a9e" opacity="1.00" d=" M 211.89 134.66 C 215.42 134.80 218.95 134.61 222.45 134.13 C 221.73 143.26 221.16 152.41 219.28 161.40 C 217.48 176.32 213.81 190.91 209.79 205.36 C 209.68 205.79 209.47 206.64 209.36 207.06 C 212.14 207.66 214.91 208.29 217.67 209.01 C 214.26 211.83 209.74 212.11 205.87 213.91 C 200.65 218.25 199.74 225.38 197.31 231.33 C 196.11 234.68 192.94 236.55 190.15 238.42 C 190.37 235.83 190.63 233.24 190.91 230.66 C 192.42 230.53 193.93 230.39 195.44 230.25 C 195.62 229.78 195.96 228.82 196.13 228.35 C 195.01 227.42 193.89 226.49 192.77 225.57 C 194.33 223.20 195.90 220.82 197.47 218.45 C 194.17 216.43 190.46 214.74 186.49 215.31 C 175.95 216.35 165.35 216.35 154.81 217.39 C 145.20 217.46 135.73 215.31 126.15 214.70 C 127.02 211.20 127.65 207.64 127.77 204.03 C 141.69 205.43 155.66 206.34 169.63 207.10 C 178.67 208.05 188.02 208.91 196.96 206.84 C 200.98 197.75 202.75 187.86 205.15 178.26 C 208.63 163.95 210.74 149.33 211.89 134.66 Z" />
</g>
<g id="#0482bbff">
<path fill="#0482bb" opacity="1.00" d=" M 39.42 166.24 C 39.60 162.41 39.95 158.58 40.81 154.85 C 40.70 160.17 40.17 165.53 40.78 170.83 C 43.70 175.46 49.09 177.56 53.59 180.31 C 64.00 186.44 75.48 190.32 86.86 194.19 C 85.57 197.96 85.02 202.01 83.21 205.58 C 78.39 204.30 73.71 202.56 69.00 200.93 C 53.63 195.00 38.21 188.28 25.55 177.51 C 24.31 176.40 23.29 175.07 22.32 173.73 C 25.76 175.00 28.93 177.03 32.49 177.93 C 35.11 177.83 37.53 176.61 39.98 175.78 C 38.33 172.85 36.79 169.85 35.39 166.79 C 36.73 166.60 38.08 166.42 39.42 166.24 Z" />
</g>
<g id="#fbe203ff">
<path fill="#fbe203" opacity="1.00" d=" M 99.54 188.44 C 106.83 185.82 115.93 187.89 120.60 194.31 C 123.86 198.49 123.86 204.00 123.68 209.03 C 123.79 213.38 120.77 217.00 117.79 219.82 C 113.32 223.92 106.71 224.17 101.02 223.24 C 95.72 221.81 91.42 217.57 88.86 212.83 C 87.99 209.30 88.24 205.57 88.39 201.96 C 88.83 195.64 93.66 190.38 99.54 188.44 Z" />
</g>
<g id="#fafef9ff">
<path fill="#fafef9" opacity="1.00" d=" M 230.86 212.58 C 239.93 210.78 248.67 207.66 257.56 205.15 C 255.38 210.98 251.42 215.83 247.87 220.86 C 240.06 231.61 230.13 240.64 219.47 248.51 C 208.39 256.16 196.35 262.86 183.21 266.18 C 186.92 258.36 191.29 250.88 195.31 243.23 C 199.74 234.60 202.54 225.29 206.22 216.36 C 214.44 215.14 222.73 214.41 230.86 212.58 Z" />
</g>
<g id="#3e819eff">
<path fill="#3e819e" opacity="1.00" d=" M 169.63 207.10 C 178.72 206.47 187.85 206.89 196.96 206.84 C 188.02 208.91 178.67 208.05 169.63 207.10 Z" />
</g>
<g id="#f6fcfaff">
<path fill="#f6fcfa" opacity="1.00" d=" M 105.73 267.46 C 117.71 272.05 130.02 276.13 142.84 277.51 C 146.14 277.78 149.42 278.18 152.69 278.67 C 147.83 283.00 141.45 285.37 135.07 286.28 C 122.50 287.50 110.74 278.55 105.73 267.46 Z" />
</g>
</svg>
