<?xml version="1.0" encoding="UTF-8" ?>
<!DOCTYPE svg PUBLIC "-//W3C//DTD SVG 1.1//EN" "http://www.w3.org/Graphics/SVG/1.1/DTD/svg11.dtd">
<svg width="306pt" height="308pt" viewBox="0 0 306 308" version="1.1" xmlns="http://www.w3.org/2000/svg">
<g id="#fcfdfdff">
</g>
<g id="#c0ecfbff">
</g>
<g id="#5eafd0ff">
<path fill="#5eafd0" opacity="1.00" d=" M 169.98 11.98 C 170.24 11.73 170.75 11.24 171.00 10.99 C 174.34 11.01 177.65 11.00 181.00 10.98 C 181.51 11.24 182.52 11.75 183.02 12.01 C 178.67 11.99 174.33 11.99 169.98 11.98 Z" />
</g>
<g id="#1792c5ff">
<path fill="#1792c5" opacity="1.00" d=" M 159.61 16.33 C 162.14 13.88 166.41 12.53 169.98 11.98 C 174.33 11.99 178.67 11.99 183.02 12.01 C 185.35 12.32 187.58 13.26 189.67 14.33 C 191.27 15.48 192.97 16.46 194.72 17.36 C 199.41 21.66 204.89 26.85 206.89 32.75 C 206.13 33.60 205.41 34.49 204.64 35.33 C 202.51 35.34 199.84 34.39 198.88 36.97 C 197.99 35.89 197.11 34.82 196.21 33.76 C 191.72 27.70 186.41 21.70 179.30 18.73 C 177.64 18.00 175.96 17.32 174.22 16.79 C 170.73 15.91 167.23 15.93 163.73 16.85 C 162.34 16.83 160.96 16.70 159.61 16.33 Z" />
</g>
<g id="#b6ebf7ff">
</g>
<g id="#66a9bcff">
<path fill="#66a9bc" opacity="1.00" d=" M 154.69 19.17 C 156.03 17.99 157.67 16.03 159.61 16.33 C 160.96 16.70 162.34 16.83 163.73 16.85 L 164.72 16.90 L 165.15 17.77 C 161.98 17.92 159.10 19.26 156.10 20.10 C 155.75 19.86 155.05 19.40 154.69 19.17 Z" />
</g>
<g id="#42a4c7ff">
<path fill="#42a4c7" opacity="1.00" d=" M 163.73 16.85 C 167.23 15.93 170.73 15.91 174.22 16.79 C 171.04 16.83 167.89 16.97 164.72 16.90 L 163.73 16.85 Z" />
</g>
<g id="#baeff5ff">
</g>
<g id="#99bfcfff">
<path fill="#99bfcf" opacity="1.00" d=" M 148.89 24.00 C 150.51 22.32 151.98 18.85 154.69 19.17 C 155.05 19.40 155.75 19.86 156.10 20.10 C 153.81 21.62 152.00 24.56 148.89 24.00 Z" />
</g>
<g id="#def9faff">
</g>
<g id="#a1e4f4ff">
</g>
<g id="#58b7d0ff">
<path fill="#58b7d0" opacity="1.00" d=" M 151.01 33.00 C 157.03 32.97 163.06 32.99 169.09 32.95 C 169.57 33.21 170.53 33.72 171.01 33.97 C 164.33 34.01 157.66 34.04 151.00 33.97 L 151.01 33.00 Z" />
</g>
<g id="#1284b7ff">
<path fill="#1284b7" opacity="1.00" d=" M 204.64 35.33 C 205.41 34.49 206.13 33.60 206.89 32.75 C 209.70 35.45 210.86 39.98 212.39 43.68 C 218.49 58.66 221.62 74.88 221.98 91.02 C 219.38 91.11 216.80 91.05 214.23 90.85 C 213.35 88.62 212.72 86.29 211.95 84.04 C 210.18 74.36 208.43 64.65 205.75 55.16 C 203.54 51.17 203.93 44.89 199.18 42.86 C 198.79 42.31 195.54 41.02 197.92 41.10 C 200.59 41.61 200.10 39.40 199.23 37.80 L 198.88 36.97 C 199.84 34.39 202.51 35.34 204.64 35.33 Z" />
</g>
<g id="#1698ceff">
<path fill="#1698ce" opacity="1.00" d=" M 130.96 36.05 C 137.63 35.26 144.20 33.41 151.00 33.97 C 157.66 34.04 164.33 34.01 171.01 33.97 C 175.65 34.00 180.29 34.83 184.70 36.30 C 185.32 36.50 186.56 36.89 187.19 37.09 C 187.08 41.08 181.85 38.43 179.21 38.81 C 171.15 37.98 162.78 37.10 154.74 38.59 C 151.37 39.11 148.03 39.85 144.73 40.69 C 142.73 41.07 140.79 41.69 138.78 41.99 C 136.73 41.90 134.85 42.75 133.03 43.58 C 110.77 51.11 89.77 63.37 73.96 80.91 C 72.22 82.22 70.65 83.77 69.57 85.68 C 67.43 88.78 65.30 91.92 62.80 94.74 C 60.86 96.38 59.52 98.53 58.80 100.96 C 53.78 109.07 50.58 118.05 46.72 126.71 C 45.27 128.87 44.90 131.42 44.75 133.95 C 43.95 137.96 43.13 141.97 42.76 146.05 L 42.00 145.58 C 38.74 141.28 40.30 148.34 39.89 151.09 C 35.82 151.22 37.10 147.00 38.82 144.98 C 37.56 144.61 36.26 144.48 34.98 144.81 C 34.91 143.46 34.83 142.12 34.75 140.78 C 36.87 132.24 37.92 123.33 41.48 115.22 C 42.24 113.54 42.96 111.82 43.11 109.97 C 42.06 110.46 41.03 110.97 40.06 111.62 C 32.06 117.34 24.25 124.90 21.77 134.75 C 21.10 138.16 20.94 141.64 21.05 145.11 C 20.58 147.23 21.61 149.29 23.05 150.79 C 23.85 152.07 24.53 153.44 25.09 154.86 C 20.34 153.81 22.88 158.44 22.95 161.16 C 21.31 159.81 20.55 157.27 18.28 156.86 C 19.38 159.83 17.64 162.33 15.48 163.79 C 14.43 162.42 12.62 159.23 12.94 162.98 C 10.12 160.83 9.65 156.08 8.23 152.72 C 8.08 148.50 8.00 144.28 8.08 140.07 C 10.15 130.69 17.45 123.57 24.34 117.37 C 30.71 113.63 37.19 110.06 43.76 106.69 C 50.18 94.90 56.99 83.13 66.17 73.22 C 67.90 71.59 69.60 69.91 71.24 68.18 C 84.09 54.85 100.58 45.21 118.04 39.25 C 121.89 38.72 125.53 37.33 129.26 36.31 C 129.68 36.25 130.53 36.12 130.96 36.05 Z" />
</g>
<g id="#a5e2f0ff">
</g>
<g id="#abe9f9ff">
</g>
<g id="#a0e4f2ff">
</g>
<g id="#3a94b7ff">
<path fill="#3a94b7" opacity="1.00" d=" M 187.19 37.09 C 188.78 37.46 190.36 37.84 191.96 38.18 L 192.74 38.38 C 194.94 38.46 199.57 41.79 199.23 37.80 C 200.10 39.40 200.59 41.61 197.92 41.10 C 195.54 41.02 198.79 42.31 199.18 42.86 C 192.44 42.43 185.88 40.24 179.10 39.86 L 179.21 38.81 C 181.85 38.43 187.08 41.08 187.19 37.09 Z" />
</g>
<g id="#5aa4c2ff">
<path fill="#5aa4c2" opacity="1.00" d=" M 154.74 38.59 C 162.78 37.10 171.15 37.98 179.21 38.81 C 174.47 38.92 169.74 38.95 165.00 39.02 C 164.25 39.01 162.75 38.99 162.00 38.98 C 160.19 38.88 156.56 38.69 154.74 38.59 Z" />
</g>
<g id="#b6ecf6ff">
</g>
<g id="#ccf6faff">
</g>
<g id="#9ee2f5ff">
</g>
<g id="#abe7f3ff">
</g>
<g id="#97daeeff">
</g>
<g id="#4688a3ff">
<path fill="#4688a3" opacity="1.00" d=" M 211.95 84.04 C 212.72 86.29 213.35 88.62 214.23 90.85 C 216.80 91.05 219.38 91.11 221.98 91.02 L 222.98 91.05 C 222.98 91.54 222.98 92.51 222.99 93.00 C 219.34 92.60 215.70 92.19 212.06 91.84 C 211.99 89.24 211.96 86.64 211.95 84.04 Z" />
</g>
<g id="#fad8d4ff">
<path fill="#fad8d4" opacity="1.00" d=" M 207.19 97.24 C 208.53 92.22 216.28 94.65 219.99 93.97 L 219.99 94.95 C 216.91 95.12 213.66 94.46 210.75 95.71 C 209.54 96.17 208.37 96.71 207.19 97.24 Z" />
</g>
<g id="#8cd5ebff">
</g>
<g id="#d46f6dff">
<path fill="#d46f6d" opacity="1.00" d=" M 210.75 95.71 C 213.66 94.46 216.91 95.12 219.99 94.95 L 221.00 94.98 L 221.01 96.02 C 220.21 96.06 218.60 96.13 217.79 96.17 C 216.03 96.05 212.51 95.82 210.75 95.71 Z" />
</g>
<g id="#cd1d21ff">
<path fill="#cd1d21" opacity="1.00" d=" M 207.19 97.24 C 208.37 96.71 209.54 96.17 210.75 95.71 C 212.51 95.82 216.03 96.05 217.79 96.17 C 222.45 97.56 227.14 99.95 229.51 104.40 C 229.87 107.26 231.48 109.88 231.77 112.75 C 230.92 115.11 228.17 115.21 226.34 116.43 C 222.10 120.49 216.93 123.29 212.81 127.49 C 210.32 126.83 207.76 126.33 205.30 125.65 C 203.46 124.12 202.05 122.14 200.16 120.68 C 198.68 115.51 198.87 110.17 200.15 105.01 C 201.18 101.57 204.06 98.87 207.19 97.24 Z" />
</g>
<g id="#ac292cff">
<path fill="#ac292c" opacity="1.00" d=" M 217.79 96.17 C 218.60 96.13 220.21 96.06 221.01 96.02 C 226.62 97.06 232.45 102.11 233.03 107.97 C 232.99 111.65 233.02 115.34 233.00 119.02 C 232.02 124.11 228.21 128.84 223.01 130.01 C 214.91 134.43 201.82 130.10 200.16 120.68 C 202.05 122.14 203.46 124.12 205.30 125.65 C 207.76 126.33 210.32 126.83 212.81 127.49 C 216.93 123.29 222.10 120.49 226.34 116.43 C 228.17 115.21 230.92 115.11 231.77 112.75 C 231.48 109.88 229.87 107.26 229.51 104.40 C 227.14 99.95 222.45 97.56 217.79 96.17 Z" />
</g>
<g id="#638d9fff">
<path fill="#638d9f" opacity="1.00" d=" M 264.97 97.88 C 267.40 100.44 269.17 104.50 269.91 108.08 C 269.44 108.05 268.50 107.99 268.04 107.96 C 265.99 105.91 265.14 101.20 264.97 97.88 Z" />
</g>
<g id="#b44d52ff">
<path fill="#b44d52" opacity="1.00" d=" M 198.21 108.27 C 198.91 107.24 198.51 105.01 200.15 105.01 C 198.87 110.17 198.68 115.51 200.16 120.68 C 198.23 121.07 198.04 117.49 197.97 116.01 C 198.00 113.43 198.08 110.85 198.21 108.27 Z" />
</g>
<g id="#fbd3d0ff">
<path fill="#fbd3d0" opacity="1.00" d=" M 197.15 107.97 L 198.21 108.27 C 198.08 110.85 198.00 113.43 197.97 116.01 C 195.78 115.07 197.44 110.38 197.15 107.97 Z" />
</g>
<g id="#8d494bff">
<path fill="#8d494b" opacity="1.00" d=" M 233.03 107.97 L 234.00 108.02 C 233.99 110.76 233.98 116.24 233.98 118.98 L 233.00 119.02 C 233.02 115.34 232.99 111.65 233.03 107.97 Z" />
</g>
<g id="#3b7a98ff">
<path fill="#3b7a98" opacity="1.00" d=" M 268.04 107.96 C 268.50 107.99 269.44 108.05 269.91 108.08 C 272.43 114.36 275.36 120.95 275.72 127.70 C 273.85 128.39 272.61 129.69 272.97 131.79 L 272.09 132.07 C 272.36 123.80 269.36 116.00 268.04 107.96 Z" />
</g>
<g id="#6ecdecff">
</g>
<g id="#eafaf9ff">
</g>
<g id="#8fc8ddff">
<path fill="#8fc8dd" opacity="1.00" d=" M 44.75 133.95 C 44.90 131.42 45.27 128.87 46.72 126.71 C 46.51 128.91 46.94 133.36 44.75 133.95 Z" />
</g>
<g id="#13618eff">
<path fill="#13618e" opacity="1.00" d=" M 272.97 131.79 C 272.61 129.69 273.85 128.39 275.72 127.70 C 278.16 131.65 277.24 136.77 278.86 141.08 C 279.09 149.72 278.97 158.37 279.02 167.01 C 279.08 169.98 277.90 172.79 277.68 175.74 C 277.31 178.16 277.07 180.60 276.97 183.06 C 278.53 182.35 280.05 181.47 281.08 180.05 C 286.44 175.04 290.44 168.80 292.93 161.95 C 293.46 160.75 294.51 158.35 295.03 157.15 C 296.40 157.64 297.69 158.33 298.98 159.00 C 299.01 162.33 299.04 165.68 299.00 169.02 C 296.07 182.19 284.97 191.57 273.38 197.40 C 270.54 201.21 268.97 205.73 267.00 210.01 C 250.47 243.60 217.89 269.11 180.91 275.79 C 175.44 276.27 171.73 280.42 168.25 284.25 C 161.77 292.10 152.53 296.96 142.94 299.94 C 139.31 299.97 135.69 300.06 132.06 299.92 C 119.91 297.60 110.96 287.42 105.76 276.86 C 106.98 275.49 108.20 273.65 110.27 274.62 C 114.67 280.30 120.94 284.15 127.77 286.18 C 130.81 286.91 134.27 287.62 137.26 286.27 C 142.12 284.24 147.58 283.06 151.78 279.81 C 153.73 275.67 146.43 278.65 144.07 277.78 C 141.78 276.32 139.42 276.10 137.00 277.14 C 129.75 274.50 121.90 273.77 114.74 270.73 C 117.17 269.69 119.74 271.04 122.22 270.39 C 124.79 269.47 127.26 270.64 129.73 271.25 C 132.68 271.80 135.73 271.94 138.72 272.21 C 144.80 272.75 151.28 274.06 157.29 272.36 C 158.32 272.08 159.31 271.71 160.28 271.26 C 165.11 268.99 167.81 264.03 171.02 260.01 C 178.66 249.18 185.55 237.72 190.28 225.29 C 191.41 222.97 193.18 220.75 193.04 218.04 L 193.04 217.05 C 185.62 216.92 178.21 217.02 170.79 216.79 C 179.46 216.96 189.36 212.42 197.05 218.11 C 198.23 222.21 191.36 222.54 193.12 226.66 C 194.52 227.05 196.66 226.91 195.97 229.03 C 195.86 231.32 192.73 230.25 191.17 230.46 C 190.32 233.24 190.15 236.14 189.97 239.05 C 195.78 235.99 199.09 229.74 199.54 223.33 C 201.45 219.26 204.13 215.45 207.23 212.20 C 210.62 212.74 215.50 212.95 216.93 209.06 C 218.94 205.59 207.58 209.61 209.80 205.76 C 212.34 206.54 214.75 206.45 217.01 205.49 C 225.73 202.08 235.53 202.03 244.24 198.43 C 250.74 195.90 257.87 194.49 263.86 190.84 C 269.68 181.42 270.31 169.95 272.38 159.29 C 272.69 158.28 272.96 157.26 273.20 156.22 C 274.00 148.53 275.17 140.29 273.24 132.70 L 272.97 131.79 M 256.31 205.36 C 240.16 211.06 223.31 214.66 206.26 216.18 C 203.00 224.33 200.19 232.66 196.65 240.69 C 192.62 249.43 187.20 257.43 183.00 266.07 C 184.71 266.02 186.32 265.44 187.93 264.90 C 216.52 254.98 241.04 234.39 256.34 208.32 C 256.76 207.68 257.91 204.40 256.31 205.36 Z" />
</g>
<g id="#b8e4f4ff">
</g>
<g id="#387898ff">
<path fill="#387898" opacity="1.00" d=" M 273.24 132.70 C 275.17 140.29 274.00 148.53 273.20 156.22 C 272.95 148.38 272.96 140.53 273.24 132.70 Z" />
</g>
<g id="#9ad4e8ff">
<path fill="#9ad4e8" opacity="1.00" d=" M 210.99 134.00 C 214.05 133.94 217.19 133.91 220.25 134.22 C 217.56 134.58 214.89 134.80 212.23 135.25 C 212.00 136.75 211.55 139.77 211.33 141.27 C 211.24 139.45 211.08 135.82 210.99 134.00 Z" />
</g>
<g id="#0d6b9dff">
<path fill="#0d6b9d" opacity="1.00" d=" M 220.25 134.22 C 220.69 134.18 221.57 134.09 222.01 134.04 C 221.97 137.33 222.04 140.64 221.86 143.94 C 219.60 164.66 215.66 185.14 209.97 205.19 L 209.80 205.76 C 207.58 209.61 218.94 205.59 216.93 209.06 C 215.50 212.95 210.62 212.74 207.23 212.20 C 204.13 215.45 201.45 219.26 199.54 223.33 C 199.09 229.74 195.78 235.99 189.97 239.05 C 190.15 236.14 190.32 233.24 191.17 230.46 C 192.73 230.25 195.86 231.32 195.97 229.03 C 196.66 226.91 194.52 227.05 193.12 226.66 C 191.36 222.54 198.23 222.21 197.05 218.11 C 189.36 212.42 179.46 216.96 170.79 216.79 C 165.53 216.96 160.27 216.99 155.01 217.01 C 152.33 216.99 149.66 216.99 146.99 217.00 C 143.38 216.91 139.83 216.14 136.26 215.72 C 133.51 215.31 130.76 215.03 127.99 214.98 C 127.49 214.95 126.50 214.91 126.01 214.89 C 126.92 211.32 127.82 207.72 128.13 204.04 C 129.67 203.93 131.23 203.99 132.75 204.26 C 134.26 204.51 137.27 205.00 138.78 205.24 C 141.49 205.62 144.25 206.00 147.00 206.03 C 148.69 206.10 152.07 206.23 153.75 206.30 C 156.82 206.66 159.92 207.02 163.02 207.04 C 164.71 207.10 168.09 207.21 169.78 207.27 C 178.70 208.31 187.75 208.23 196.71 207.85 L 197.05 207.05 L 197.37 206.23 C 204.65 185.26 208.79 163.29 211.33 141.27 C 211.55 139.77 212.00 136.75 212.23 135.25 C 214.89 134.80 217.56 134.58 220.25 134.22 Z" />
</g>
<g id="#c8ebf4ff">
<path fill="#c8ebf4" opacity="1.00" d=" M 222.01 134.04 L 222.99 133.99 C 222.98 136.49 222.94 141.51 222.92 144.01 L 221.86 143.94 C 222.04 140.64 221.97 137.33 222.01 134.04 Z" />
</g>
<g id="#93daefff">
</g>
<g id="#8a9da9ff">
<path fill="#8a9da9" opacity="1.00" d=" M 285.11 135.03 C 286.74 135.81 288.00 137.34 289.03 138.80 C 288.74 139.06 288.17 139.58 287.89 139.84 C 286.65 138.89 283.04 136.82 285.11 135.03 Z" />
</g>
<g id="#357491ff">
<path fill="#357491" opacity="1.00" d=" M 287.89 139.84 C 288.17 139.58 288.74 139.06 289.03 138.80 C 294.06 143.61 296.91 150.46 298.94 157.10 C 298.95 157.57 298.97 158.52 298.98 159.00 C 297.69 158.33 296.40 157.64 295.03 157.15 C 294.51 158.35 293.46 160.75 292.93 161.95 C 293.98 154.13 291.73 146.53 287.89 139.84 Z" />
</g>
<g id="#95deeeff">
</g>
<g id="#9adbe3ff">
</g>
<g id="#a4d2e6ff">
</g>
<g id="#1189beff">
<path fill="#1189be" opacity="1.00" d=" M 34.98 144.81 C 36.26 144.48 37.56 144.61 38.82 144.98 C 37.10 147.00 35.82 151.22 39.89 151.09 C 40.30 148.34 38.74 141.28 42.00 145.58 C 40.84 149.97 40.05 154.46 39.96 159.01 C 40.97 162.94 38.07 168.77 40.96 172.00 L 41.67 172.50 C 55.16 182.88 71.09 188.93 87.08 194.26 C 86.27 196.39 85.35 198.48 84.59 200.63 L 84.18 201.21 C 83.24 203.37 81.39 204.31 79.05 204.13 C 59.40 198.05 39.44 190.03 24.07 175.98 C 22.64 174.05 20.96 172.29 18.93 171.00 C 16.95 168.54 13.10 166.46 12.94 162.98 C 12.62 159.23 14.43 162.42 15.48 163.79 C 17.64 162.33 19.38 159.83 18.28 156.86 C 20.55 157.27 21.31 159.81 22.95 161.16 C 22.88 158.44 20.34 153.81 25.09 154.86 C 27.04 158.23 29.32 161.42 31.87 164.36 C 32.66 165.30 33.65 166.03 34.90 166.19 C 35.09 159.06 35.01 151.93 34.98 144.81 Z" />
</g>
<g id="#6ab7d2ff">
</g>
<g id="#52a4c1ff">
<path fill="#52a4c1" opacity="1.00" d=" M 39.96 159.01 C 40.05 154.46 40.84 149.97 42.00 145.58 C 43.11 147.88 41.79 150.36 41.73 152.75 C 41.53 154.30 41.15 157.40 40.96 158.95 L 39.96 159.01 Z" />
</g>
<g id="#cdf5faff">
</g>
<g id="#b5d7dfff">
</g>
<g id="#6db9d1ff">
<path fill="#6db9d1" opacity="1.00" d=" M 39.96 159.01 L 40.96 158.95 C 40.96 163.30 40.95 167.65 40.96 172.00 C 38.07 168.77 40.97 162.94 39.96 159.01 Z" />
</g>
<g id="#8dd0e2ff">
</g>
<g id="#9dcde2ff">
</g>
<g id="#fdfac3ff">
<path fill="#fdfac3" opacity="1.00" d=" M 101.01 186.00 C 103.50 186.27 108.46 186.80 110.95 187.06 C 107.62 187.00 104.31 186.98 100.98 186.99 L 101.01 186.00 Z" />
</g>
<g id="#faf485ff">
<path fill="#faf485" opacity="1.00" d=" M 90.01 195.06 C 92.11 191.26 96.48 187.82 100.98 186.99 C 104.31 186.98 107.62 187.00 110.95 187.06 C 114.93 188.33 120.51 190.38 120.98 195.01 L 120.09 194.83 C 118.60 193.36 117.04 191.95 115.33 190.75 C 110.84 187.04 103.70 186.95 98.72 189.70 C 94.93 190.98 92.89 194.57 90.16 197.21 C 90.12 196.67 90.05 195.60 90.01 195.06 Z" />
</g>
<g id="#f5e83bff">
<path fill="#f5e83b" opacity="1.00" d=" M 98.72 189.70 C 103.70 186.95 110.84 187.04 115.33 190.75 C 109.82 189.88 104.32 188.49 98.72 189.70 Z" />
</g>
<g id="#fae207ff">
<path fill="#fae207" opacity="1.00" d=" M 98.72 189.70 C 104.32 188.49 109.82 189.88 115.33 190.75 C 117.04 191.95 118.60 193.36 120.09 194.83 C 120.69 197.09 120.58 200.10 123.28 200.94 C 123.16 204.29 123.03 207.69 123.05 211.06 C 119.14 222.49 102.31 227.44 93.98 218.08 C 93.36 216.37 93.38 213.56 90.82 214.04 C 89.12 209.83 89.03 205.26 88.78 200.79 C 89.17 199.57 89.69 198.40 90.16 197.21 C 92.89 194.57 94.93 190.98 98.72 189.70 Z" />
</g>
<g id="#e3f6e7ff">
</g>
<g id="#fbf8a2ff">
<path fill="#fbf8a2" opacity="1.00" d=" M 88.92 195.05 L 90.01 195.06 C 90.05 195.60 90.12 196.67 90.16 197.21 C 89.69 198.40 89.17 199.57 88.78 200.79 C 87.80 205.51 86.45 211.72 90.84 215.15 C 90.90 215.58 91.02 216.43 91.08 216.86 C 88.14 217.44 87.78 213.15 86.93 211.09 C 87.10 205.70 86.51 200.03 88.92 195.05 Z" />
</g>
<g id="#f2e252ff">
<path fill="#f2e252" opacity="1.00" d=" M 120.09 194.83 L 120.98 195.01 C 121.24 195.26 121.76 195.77 122.02 196.03 C 122.42 197.67 122.86 199.30 123.28 200.94 C 120.58 200.10 120.69 197.09 120.09 194.83 Z" />
</g>
<g id="#fdfbb6ff">
</g>
<g id="#488ca7ff">
<path fill="#488ca7" opacity="1.00" d=" M 79.05 204.13 C 81.39 204.31 83.24 203.37 84.18 201.21 C 84.24 203.56 83.96 205.73 81.03 205.10 C 80.53 204.86 79.54 204.37 79.05 204.13 Z" />
</g>
<g id="#9ccadaff">
<path fill="#9ccada" opacity="1.00" d=" M 84.18 201.21 L 84.59 200.63 C 84.79 201.41 85.19 202.98 85.39 203.76 C 86.49 206.61 80.97 206.91 81.03 205.10 C 83.96 205.73 84.24 203.56 84.18 201.21 Z" />
</g>
<g id="#f6ed55ff">
<path fill="#f6ed55" opacity="1.00" d=" M 90.84 215.15 C 86.45 211.72 87.80 205.51 88.78 200.79 C 89.03 205.26 89.12 209.83 90.82 214.04 L 90.84 215.15 Z" />
</g>
<g id="#ebd863ff">
<path fill="#ebd863" opacity="1.00" d=" M 123.28 200.94 C 124.43 204.14 123.95 207.59 124.00 210.94 L 123.05 211.06 C 123.03 207.69 123.16 204.29 123.28 200.94 Z" />
</g>
<g id="#b2e2f0ff">
</g>
<g id="#6fa9bbff">
<path fill="#6fa9bb" opacity="1.00" d=" M 138.78 205.24 C 140.19 205.16 141.60 205.08 143.01 205.00 C 144.17 205.40 147.40 203.94 147.00 206.03 C 144.25 206.00 141.49 205.62 138.78 205.24 Z" />
</g>
<g id="#528ba1ff">
<path fill="#528ba1" opacity="1.00" d=" M 209.97 205.19 C 212.18 204.47 214.89 204.49 217.01 205.49 C 214.75 206.45 212.34 206.54 209.80 205.76 L 209.97 205.19 Z" />
</g>
<g id="#f1faf8ff">
</g>
<g id="#78abc2ff">
</g>
<g id="#c1edfbff">
</g>
<g id="#3e819eff">
<path fill="#3e819e" opacity="1.00" d=" M 169.78 207.27 C 178.86 206.92 187.96 206.97 197.05 207.05 L 196.71 207.85 C 187.75 208.23 178.70 208.31 169.78 207.27 Z" />
</g>
<g id="#f6eb7fff">
<path fill="#f6eb7f" opacity="1.00" d=" M 123.05 211.06 L 124.00 210.94 L 124.00 211.91 C 121.82 217.70 117.20 222.74 110.95 223.93 C 107.95 223.96 104.97 224.00 101.98 224.03 C 97.76 224.15 94.71 220.45 91.08 218.84 C 91.08 218.35 91.08 217.35 91.08 216.86 C 92.06 217.24 93.02 217.65 93.98 218.08 C 102.31 227.44 119.14 222.49 123.05 211.06 Z" />
</g>
<g id="#f6e229ff">
<path fill="#f6e229" opacity="1.00" d=" M 90.82 214.04 C 93.38 213.56 93.36 216.37 93.98 218.08 C 93.02 217.65 92.06 217.24 91.08 216.86 C 91.02 216.43 90.90 215.58 90.84 215.15 L 90.82 214.04 Z" />
</g>
<g id="#9fcfe3ff">
</g>
<g id="#9fd2ddff">
</g>
<g id="#6da4b6ff">
<path fill="#6da4b6" opacity="1.00" d=" M 155.01 217.01 C 160.27 216.99 165.53 216.96 170.79 216.79 C 178.21 217.02 185.62 216.92 193.04 217.05 L 193.04 218.04 C 180.35 217.96 167.66 218.03 154.98 217.98 L 155.01 217.01 Z" />
</g>
<g id="#d2f4faff">
</g>
<g id="#fffbb0ff">
<path fill="#fffbb0" opacity="1.00" d=" M 101.98 224.03 C 104.97 224.00 107.95 223.96 110.95 223.93 C 111.20 227.24 104.39 224.25 102.03 224.97 L 101.98 224.03 Z" />
</g>
<g id="#3d7e9bff">
<path fill="#3d7e9b" opacity="1.00" d=" M 99.03 262.93 C 101.61 263.61 104.16 264.44 106.61 265.49 C 111.24 268.66 117.25 268.01 122.22 270.39 C 119.74 271.04 117.17 269.69 114.74 270.73 C 111.67 270.28 108.89 268.85 105.96 267.93 C 107.10 270.35 108.80 272.41 110.27 274.62 C 108.20 273.65 106.98 275.49 105.76 276.86 C 102.36 273.59 102.19 267.00 99.03 262.93 Z" />
</g>
<g id="#e4f5f6ff">
</g>
<g id="#5a92a9ff">
</g>
<g id="#95c2d5ff">
</g>
<g id="#346b90ff">
<path fill="#346b90" opacity="1.00" d=" M 138.72 272.21 C 144.91 271.95 151.10 272.02 157.29 272.36 C 151.28 274.06 144.80 272.75 138.72 272.21 Z" />
</g>
<g id="#98c9e1ff">
<path fill="#98c9e1" opacity="1.00" d=" M 137.00 277.14 C 139.42 276.10 141.78 276.32 144.07 277.78 C 141.66 278.90 139.31 278.68 137.00 277.14 Z" />
</g>
<g id="#5489a2ff">
<path fill="#5489a2" opacity="1.00" d=" M 127.77 286.18 C 130.94 286.13 134.08 286.20 137.26 286.27 C 134.27 287.62 130.81 286.91 127.77 286.18 Z" />
</g>
<g id="#b2d7e5ff">
<path fill="#b2d7e5" opacity="1.00" d=" M 132.06 299.92 C 135.69 300.06 139.31 299.97 142.94 299.94 L 143.02 300.95 C 140.26 300.95 134.75 300.95 131.99 300.95 L 132.06 299.92 Z" />
</g>
</svg>
